<?xml version="1.0" encoding="UTF-8" standalone="no" ?>
<!DOCTYPE svg PUBLIC "-//W3C//DTD SVG 1.1//EN" "http://www.w3.org/Graphics/SVG/1.1/DTD/svg11.dtd">
<svg xmlns="http://www.w3.org/2000/svg" xmlns:xlink="http://www.w3.org/1999/xlink" version="1.1" width="1280" height="1024" viewBox="0 0 1280 1024" xml:space="preserve">
<desc>Created with Fabric.js 5.3.0</desc>
<defs>
</defs>
<g transform="matrix(1 0 0 1 640 512)" id="background-logo"  >
<rect style="stroke: none; stroke-width: 0; stroke-dasharray: none; stroke-linecap: butt; stroke-dashoffset: 0; stroke-linejoin: miter; stroke-miterlimit: 4; fill: rgb(255,255,255); fill-opacity: 0; fill-rule: nonzero; opacity: 1;"  paint-order="stroke"  x="-640" y="-512" rx="0" ry="0" width="1280" height="1024" />
</g>
<g transform="matrix(1.9211538461538462 0 0 1.9211538461538462 640 410.13773689275484)" id="logo-logo"  >
<g style=""  paint-order="stroke"   >
		<g transform="matrix(1.4065296323859828 0 0 1.4065296323859826 -0.7971249003867342 78.94587979017899)"  >
<g style=""  paint-order="stroke"   >
		<g transform="matrix(1 0 0 1 0 0)"  >
<path style="stroke: none; stroke-width: 1; stroke-dasharray: none; stroke-linecap: butt; stroke-dashoffset: 0; stroke-linejoin: miter; stroke-miterlimit: 4; fill: rgb(67,138,223); fill-rule: nonzero; opacity: 1;"  paint-order="stroke"  transform=" translate(-99.98334137572101, -19.921084107510744)" d="M 94.06 22.26 L 95.06 25.340000000000003 C 93 25.12 91.26 25 90 25 C 88.75986706594114 24.915708622096204 87.5146057856693 24.945835911135035 86.28 25.089999999999996 C 85.30415431585598 25.229257171030945 84.34106144264052 25.446621881999715 83.4 25.740000000000002 C 80.7 26.61 80.03 27.65 76.14 29.939999999999998 C 73.54 31.47 73.39 31.269999999999996 71.86 32.36 C 70.78493120638825 33.13975642126396 69.78101166641602 34.01316642103979 68.86 34.97 C 71.35 38.269999999999996 65.44 41.5 64.44 38.839999999999996 C 63.629999999999995 36.699999999999996 63.54 32.949999999999996 67.25 33.9 L 71.5 30.689999999999998 C 69.97240690374653 30.75534998139295 68.44986790647212 30.908939441644318 66.93999999999997 31.150000000000006 C 64.54878014653947 31.48131870483088 62.20130519588147 32.074894513782965 59.940000000000005 32.91999999999999 C 58.16442956122967 33.6105280464784 56.459823773950944 34.47120326716726 54.849999999999994 35.49 C 54.95732873867264 35.75585894790714 55.027977000621675 36.03508779275333 55.059999999999995 36.32 C 55.15717027878238 37.509240541508085 54.52836720701233 38.639908432528856 53.46681731930238 39.184745072768905 C 52.40526743159242 39.72958171300896 51.12003952861963 39.581283296722866 50.21046739403614 38.80900506924632 C 49.300895259452645 38.03672684176976 48.94611616933776 36.792566490339915 49.31157245026049 35.656706976412586 C 49.67702873118321 34.520847462485264 50.690744956235214 33.71699262613785 51.879999999999995 33.62 C 52.550223355876774 33.56410472338407 53.21887405657227 33.74453427754 53.769999999999996 34.129999999999995 C 55.13999999999999 33.489999999999995 56.769999999999996 32.74999999999999 58.63999999999999 31.989999999999995 C 60.79250525294779 30.997936407255757 63.03640364694458 30.217595622477774 65.33999999999996 29.660000000000004 C 68.96999999999998 28.909999999999997 69.85999999999999 29.659999999999997 72.58999999999999 29.009999999999998 C 75.40215094699026 28.308645879757826 77.96624719941693 26.844931015012246 80 24.780000000000005 L 70.88 24.69 C 63.779999999999994 24.610000000000003 61.529999999999994 24.580000000000002 58.11 24.830000000000002 C 55.83559185621506 24.894373494435136 53.570771889835235 25.151967493565486 51.34 25.599999999999998 C 48.1 26.41 44.56 28 42.2 28.19 C 41.484946162745544 28.23076267971493 40.77522782306361 28.33788997627069 40.08 28.510000000000005 C 39.4787613600273 28.659084233043885 38.88757628935477 28.846125837324465 38.309999999999995 29.070000000000007 C 36.31 29.86 34.800000000000004 31.85 33.010000000000005 33.64 C 32.50000000000001 34.15 31.800000000000004 34.8 30.940000000000005 35.51 C 31.081998498449234 35.82644125267309 31.169885676811596 36.16446886175909 31.200000000000006 36.51 C 31.314839831561812 38.12882298056553 30.100531831427105 39.53639428484377 28.482366683027593 39.660158503523434 C 26.86420153462808 39.783922722203094 25.449955976719806 38.577394480612604 25.317271133854398 36.959936363135064 C 25.184586290988992 35.342478245657524 26.383298090703793 33.92160143289605 28 33.78 C 28.538881659083927 33.73320107658941 29.07995416081513 33.84072189424113 29.56 34.09 L 33.3 30.870000000000005 C 32.2240131275328 30.526003405145797 31.44432688678874 29.590379916252925 31.299999999999997 28.470000000000006 L 30.109999999999996 28.470000000000006 C 22.309999999999995 28.810000000000006 19.169999999999995 29.770000000000007 18.299999999999997 30.060000000000006 C 17.799999999999997 30.220000000000006 17.349999999999998 30.380000000000006 16.929999999999996 30.540000000000006 C 17.146069910931345 31.950256934994513 16.339047581757086 33.31759528546075 15 33.81 C 11.42 35.1 9.43 29.550000000000004 13 28.250000000000004 C 14.037174913957589 27.878195077417292 15.195178181163918 28.11751575263993 16 28.870000000000005 C 18.7280567363779 27.896425162371923 21.560641331593814 27.2453334426185 24.439999999999984 26.93 C 26.806092674076083 26.759680321513592 29.180053199427388 26.72629128458881 31.549999999999926 26.829999999999988 C 33.269999999999996 24.610000000000003 35.01 24.560000000000002 36.79 26.69 C 40.146136991534235 26.686920483177197 43.48182306784071 26.167511326704798 46.67999999999999 25.15 C 48.08693191915634 24.666339681385452 49.45434393452461 24.074574579380112 50.77000000000001 23.379999999999995 C 44.769999999999996 23.130000000000003 39.769999999999996 22.770000000000003 35.879999999999995 22.450000000000003 C 25.635781560695108 21.704196944606608 15.45505136269832 20.254102784471858 5.409999999999947 18.11 C 5.07038194928149 18.630054875780488 4.577716346497422 19.03187433904409 4 19.26 C 3.2592366164233315 19.53868355145827 2.4373994974534496 19.506934203628514 1.7203441253958922 19.171931956315532 C 1.0032887533383348 18.836929709002554 0.4515854804633186 18.22697252205963 0.1899999999999995 17.48 C -1.1 13.9 4.44 11.89 5.73 15.48 C 5.844572607738468 15.800862894234209 5.902107177894057 16.139301542208262 5.9 16.48 L 30.229999999999997 19.560000000000002 C 27.819999999999997 17.750000000000004 25.97 16.17 24.739999999999995 15.080000000000002 C 23.739999999999995 14.230000000000002 22.969999999999995 13.470000000000002 22.169999999999995 12.720000000000002 C 20.619999999999994 18.26 12.749999999999995 11.580000000000002 18.169999999999995 9.230000000000002 L 17.569999999999993 8.740000000000002 L 17.21999999999999 8.470000000000002 C 17.116420404249926 8.529296178598182 17.009584700328578 8.582714030558858 16.89999999999999 8.630000000000003 C 15.757708241676195 9.064592687458383 14.465970147574074 8.762792098413312 13.63449654748147 7.867050552276363 C 12.803022947388866 6.971309006139414 12.598052549629411 5.660714471073414 13.116333040030803 4.5538781695382395 C 13.634613530432192 3.4470418680030654 14.772523724552652 2.765256498976073 15.99296080576937 2.8303302718649164 C 17.213397886986087 2.89540404475376 18.272356653030304 3.6943265886343557 18.66999999999999 4.850000000000003 C 18.9982080595189 5.7527757145879 18.85975586512888 6.759360587315335 18.29999999999999 7.540000000000002 C 18.94999999999999 8.090000000000003 19.54999999999999 8.610000000000003 20.10999999999999 9.100000000000003 C 21.027057004430795 9.331667822478122 21.773509360397167 9.996010419288194 22.10999999999999 10.880000000000003 L 22.62999999999999 11.350000000000003 C 23.689999999999987 12.350000000000003 25.24999999999999 13.860000000000003 25.62999999999999 13.590000000000003 C 25.79999999999999 13.460000000000003 25.62999999999999 13.000000000000004 25.259999999999987 11.910000000000004 C 24.889999999999986 10.820000000000004 24.579999999999988 9.610000000000003 24.259999999999987 8.460000000000004 C 24.00831608842834 7.622197829069862 23.82110303708698 6.766366737223665 23.699999999999985 5.900000000000006 C 22.440180581491063 5.945729978369082 21.29233364247043 5.180498685688656 20.85 4 C 19.56 0.37 25.1 -1.63 26.39 2 C 26.84560167368225 3.3189256458088883 26.331666223563467 4.777839181629943 25.150000000000002 5.52 C 25.337122164568527 6.539535284515351 25.60462364420323 7.542665833145518 25.949999999999996 8.520000000000003 C 26.587900037555485 10.586540071664736 27.605260815332198 12.516134346847913 28.949999999999996 14.21 C 30.87800159414451 16.483721504294046 33.38730404716989 18.19115320098074 36.21 19.15 C 38.21 19.910000000000004 39.69 20.090000000000003 43.93 20.46 C 50.82 21.060000000000002 54.26 21.36 58.71 21.53 C 61.44 21.630000000000003 65.13 21.740000000000002 69.52 21.740000000000002 C 67.87674957122226 20.365514026694626 66.04474015432444 19.233978798610682 64.07999999999998 18.38 C 62.492522799817934 17.728856492618497 60.844487574464786 17.236455724067863 59.15999999999999 16.91 C 52.32 15.28 48.87 14.48 47 13.78 C 45.194842552195574 13.110043758147416 43.44877694662139 12.29053020763846 41.779999999999994 11.329999999999993 C 41.09664056457554 12.12504891725579 40.047820840754554 12.505697298212738 39.01360324863215 12.33400900228728 C 37.97938565650975 12.162320706361822 37.10981540249761 11.46320442394641 36.72 10.489999999999998 C 36.1677152501692 8.9601712429687 36.9601712429687 7.272284749830794 38.489999999999995 6.719999999999999 C 40.01982875703129 6.167715250169205 41.7077152501692 6.9601712429687 42.26 8.489999999999997 C 42.45352403818606 9.03608810039959 42.48478277731139 9.626530950544655 42.35 10.189999999999996 C 46.60102970784157 12.27219988918467 51.1262018367118 13.740187276228887 55.79000000000002 14.550000000000011 C 56.3 14.629999999999997 59.1 15.059999999999997 59.21 14.649999999999997 C 59.21 14.569999999999997 59.21 14.469999999999997 58.660000000000004 14.059999999999997 C 58.1954053155609 13.645805546690655 57.697003739855546 13.271168120657109 57.17 12.940000000000001 L 57.03 12.839999999999998 C 55.99470659390955 13.15794519738097 54.86841708660035 12.89320422795186 54.08318006654073 12.147332652169625 C 53.297943046481095 11.40146107638739 52.97567535345573 10.2902638080317 53.24 9.239999999999998 C 52.830000000000005 8.829999999999998 52.39 8.399999999999999 51.86 7.899999999999999 C 51.34528371498046 7.431319504215655 50.86096829514566 6.930303552662415 50.41 6.399999999999999 C 48.96108647742049 6.728502292895165 47.49564032178843 5.920573034071625 47 4.52 C 46.48002251261876 3.152711548815522 47.04056603719477 1.610877523708429 48.31724626343273 0.8967753629087594 C 49.59392648967068 0.18267320210908977 51.201097146877316 0.5120114515366776 52.09400837036362 1.6707020241650872 C 52.98691959384992 2.8293925967934968 52.89585005769517 4.467430308052489 51.88 5.519999999999998 L 52.28 6.09 C 52.758428553918826 6.768216982455073 53.28654653283496 7.4099806024037935 53.86 8.01 C 56.41 5.3 60.5 9.01 58.32 11.83 C 59.910000000000004 13.05 61.8 14.42 64.1 16.16 C 69 19.88 70.77 20.7 72.1 21.16 C 75.52 22.45 79.03999999999999 22.8 84.19 22.740000000000002 C 86.88 22.79 90.22 22.65 94.06 22.26 Z M 198.06 13.71 C 197.15798840792993 13.378741694143228 196.1508792812111 13.510825132214633 195.36479373891615 14.063479180985443 C 194.57870819662122 14.616133229756251 194.113570090701 15.519106856255961 194.12 16.48 L 169.8 19.56 C 172.21 17.75 174.07000000000002 16.169999999999998 175.29000000000002 15.079999999999998 C 176.29000000000002 14.229999999999999 177.06000000000003 13.469999999999999 177.87000000000003 12.719999999999999 C 179.41000000000003 18.259999999999998 187.28000000000003 11.579999999999998 181.87000000000003 9.229999999999999 L 182.47000000000003 8.739999999999998 L 182.82000000000002 8.469999999999999 C 182.92357959575008 8.529296178598178 183.03041529967143 8.582714030558853 183.14000000000001 8.629999999999999 C 183.87586968965482 8.896114879524335 184.6874664109349 8.857893478626334 185.39506981952306 8.523799561574094 C 186.10267322811123 8.189705644521853 186.64789464733246 7.587307339825077 186.91000000000003 6.85 C 188.20000000000002 3.259999999999999 182.66000000000003 1.259999999999999 181.37000000000003 4.849999999999999 C 181.04707643809422 5.753330827199387 181.18518251792966 6.757399353570569 181.74000000000004 7.539999999999999 C 181.09000000000003 8.09 180.49000000000004 8.61 179.93000000000004 9.1 C 179.01294299556923 9.331667822478119 178.26649063960286 9.996010419288192 177.93000000000004 10.879999999999999 L 177.42000000000004 11.35 C 176.35000000000005 12.35 174.79000000000005 13.86 174.42000000000004 13.59 C 174.25000000000006 13.459999999999999 174.42000000000004 13 174.79000000000005 11.91 C 175.16000000000005 10.82 175.47000000000006 9.61 175.79000000000005 8.46 C 176.0416839115717 7.622197829069859 176.22889696291304 6.766366737223658 176.35000000000005 5.899999999999999 C 177.81994878960592 5.897170393410043 179.0619107816338 4.80910516300774 179.258050677251 3.3522981778225067 C 179.45419057286819 1.895491192637273 178.54422409870568 0.517697103829903 177.12736661570162 0.12619700984193916 C 175.71050913269752 -0.26530308414602466 174.2222366747387 0.4498197207857153 173.64258064231254 1.8006551418526788 C 173.06292460988635 3.1514905629196424 173.57004428368796 4.7228546746695645 174.83000000000004 5.48 C 174.63329369642463 6.49735755610008 174.36598045346372 7.499782217203467 174.03000000000003 8.48 C 173.386552769888 10.5442404401884 172.36970774993804 12.472856494693492 171.03000000000003 14.17 C 169.1019984058555 16.443721504294047 166.59269595283016 18.151153200980744 163.77000000000004 19.110000000000003 C 161.77000000000004 19.870000000000005 160.29000000000005 20.050000000000004 156.05000000000004 20.42 C 149.16000000000005 21.020000000000003 145.72000000000003 21.32 141.28000000000003 21.490000000000002 C 138.54000000000002 21.590000000000003 134.85000000000002 21.700000000000003 130.46000000000004 21.700000000000003 C 132.13271996520913 20.31026611554407 133.99898565912943 19.171641919614363 136 18.320000000000007 C 137.58747720018206 17.668856492618495 139.23551242553518 17.176455724067875 140.91999999999996 16.85000000000001 C 147.73 15.280000000000001 151.17999999999998 14.48 153.1 13.780000000000001 C 154.9051574478044 13.11004375814742 156.6512230533786 12.29053020763847 158.32 11.330000000000005 C 159.00335943542444 12.125048917255793 160.05217915924544 12.505697298212741 161.08639675136783 12.334009002287283 C 162.12061434349025 12.162320706361825 162.99018459750238 11.463204423946413 163.38 10.490000000000002 C 163.93228474983079 8.960171242968705 163.1398287570313 7.272284749830799 161.61 6.720000000000006 C 160.0801712429687 6.167715250169213 158.3922847498308 6.960171242968706 157.84 8.490000000000002 C 157.64647596181393 9.036088100399594 157.6152172226886 9.62653095054466 157.75 10.190000000000001 C 153.49897029215845 12.272199889184666 148.97379816328822 13.740187276228884 144.31 14.550000000000008 C 143.8 14.63 141 15.06 140.89000000000001 14.65 C 140.89000000000001 14.57 140.89000000000001 14.47 141.45000000000002 14.06 C 141.90957118720792 13.644031981545375 142.40480962435922 13.269256948025461 142.93 12.940000000000001 L 143.08 12.840000000000002 C 144.11396495663902 13.153271915189421 145.23651373941829 12.886391687984453 146.01885850739689 12.141301432766724 C 146.8012032753755 11.396211177548995 147.12249208743987 10.288007981093372 146.86 9.240000000000002 C 147.27 8.830000000000002 147.72000000000003 8.400000000000002 148.24 7.900000000000002 C 148.75517981077158 7.42856716445097 149.24266055091533 6.927730787590952 149.70000000000002 6.4 C 151.1129591949065 6.672008824558488 152.51345794910483 5.874148928227312 153 4.52 C 153.51997748738125 3.1527115488155215 152.95943396280524 1.6108775237084263 151.68275373656726 0.8967753629087554 C 150.40607351032932 0.18267320210908444 148.79890285312268 0.512011451536674 147.9059916296364 1.6707020241650863 C 147.0130804061501 2.8293925967934985 147.10414994230484 4.467430308052492 148.12 5.52 L 147.72 6.09 C 147.24157144608117 6.768216982455073 146.71345346716504 7.409980602403795 146.14 8.010000000000002 C 143.58999999999997 5.3 139.5 9.01 141.67999999999998 11.83 C 140.08999999999997 13.05 138.2 14.42 135.90999999999997 16.16 C 130.99999999999997 19.88 129.22999999999996 20.7 127.90999999999997 21.16 C 124.48999999999997 22.45 120.96999999999997 22.8 115.81999999999996 22.740000000000002 C 113.12999999999997 22.740000000000002 109.81999999999996 22.57 105.94999999999996 22.180000000000003 L 104.94999999999996 25.260000000000005 C 107.02999999999996 25.040000000000006 108.76999999999995 24.930000000000007 110.06999999999996 24.890000000000004 C 111.31013293405883 24.80570862209621 112.55539421433065 24.83583591113504 113.78999999999995 24.98 C 114.76584568414398 25.11925717103095 115.72893855735944 25.336621881999715 116.66999999999996 25.630000000000003 C 119.37999999999995 26.500000000000004 120.04999999999995 27.540000000000003 123.92999999999996 29.830000000000002 C 126.52999999999996 31.360000000000003 126.67999999999996 31.160000000000004 128.20999999999995 32.25 C 129.2850687936117 33.02975642126396 130.28898833358392 33.90316642103979 131.20999999999995 34.86 C 128.71999999999994 38.16 134.62999999999994 41.39 135.62999999999994 38.73 C 136.43999999999994 36.589999999999996 136.52999999999994 32.839999999999996 132.81999999999994 33.79 L 128.56999999999994 30.58 C 130.0975930962534 30.64534998139295 131.62013209352776 30.798939441644308 133.1299999999999 31.039999999999992 C 135.52121985346048 31.37131870483088 137.86869480411846 31.96489451378296 140.1299999999999 32.80999999999999 C 141.90557043877027 33.5005280464784 143.610176226049 34.361203267167255 145.21999999999994 35.379999999999995 C 145.1126712613273 35.64585894790714 145.04202299937825 35.92508779275333 145.00999999999993 36.21 C 144.91282972121755 37.399240541508085 145.5416327929876 38.529908432528856 146.60318268069756 39.074745072768906 C 147.66473256840752 39.61958171300896 148.9499604713803 39.471283296722866 149.85953260596378 38.69900506924632 C 150.76910474054728 37.926726841769764 151.12388383066215 36.682566490339916 150.75842754973945 35.546706976412594 C 150.39297126881672 34.410847462485265 149.37925504376472 33.60699262613785 148.18999999999994 33.51 C 147.51977664412317 33.45410472338408 146.85112594342766 33.634534277540006 146.29999999999995 34.019999999999996 C 144.92999999999995 33.379999999999995 143.29999999999995 32.63999999999999 141.43999999999994 31.879999999999995 C 139.28628227119046 30.89094639230849 137.0426795579328 30.110708433817393 134.73999999999992 29.549999999999997 C 131.09999999999997 28.799999999999997 130.20999999999995 29.549999999999997 127.47999999999995 28.9 C 124.65681992062945 28.213934179803804 122.078421297919 26.760340325389862 120.02999999999994 24.7 L 129.14999999999995 24.61 C 136.24999999999994 24.53 138.49999999999994 24.5 141.91999999999996 24.75 C 144.1944081437849 24.814373494435134 146.45922811016473 25.07196749356547 148.68999999999994 25.519999999999982 C 151.92999999999998 26.33 155.46999999999997 27.919999999999998 157.82999999999998 28.11 C 158.54505383725444 28.150762679714926 159.25477217693637 28.25788997627069 159.95 28.43 C 160.5512386399727 28.579084233043883 161.1424237106452 28.766125837324456 161.72 28.99 C 163.72 29.779999999999998 165.23 31.77 167.02 33.56 C 167.53 34.07 168.23000000000002 34.72 169.09 35.43 C 168.94800150155078 35.746441252673094 168.8601143231884 36.0844688617591 168.83 36.43 C 168.71192517245515 37.622479854559025 169.32693176876987 38.767901598398886 170.38615162600823 39.32826144926334 C 171.44537148324656 39.88862130012779 172.73831889098187 39.752565849658986 173.6576973670572 38.98400024663069 C 174.57707584313258 38.21543464360241 174.94018863166173 36.967086459970005 174.57648191291412 35.82530395390034 C 174.21277519416654 34.68352144783067 173.19452392273206 33.875196987608305 172 33.78 C 171.46111834091607 33.73320107658941 170.92004583918487 33.84072189424113 170.44 34.09 L 166.7 30.870000000000005 C 167.77598687246717 30.526003405145797 168.55567311321124 29.590379916252925 168.7 28.470000000000006 L 169.89 28.470000000000006 C 177.69 28.810000000000006 180.82999999999998 29.770000000000007 181.70999999999998 30.060000000000006 C 182.2 30.220000000000006 182.64999999999998 30.380000000000006 183.07999999999998 30.540000000000006 C 182.8404570228789 31.98724376516159 183.68263195600434 33.39546638312862 185.07097781161323 33.86916580143172 C 186.45932366722215 34.34286521973482 187.98661849323318 33.743098536616586 188.6816410963714 32.45126304600097 C 189.37666369950963 31.159427555385353 189.03555388164992 29.554437321178774 187.87522659509708 28.65692077995627 C 186.7148993085442 27.759404238733765 185.07569535582542 27.832615994141342 183.99999999999997 28.830000000000005 C 181.27194326362206 27.856425162371927 178.43935866840616 27.205333442618496 175.55999999999997 26.89 C 173.19390732592387 26.719680321513593 170.8199468005725 26.686291284588815 168.44999999999996 26.789999999999996 Q 165.87999999999997 23.46 163.20999999999995 26.650000000000002 C 159.85706786594113 26.64780360424587 156.5245420544785 26.12836132189238 153.32999999999996 25.110000000000003 C 151.91920062035965 24.627993146733534 150.54833843942393 24.0361819125247 149.22999999999996 23.340000000000003 C 155.22999999999996 23.090000000000003 160.22999999999996 22.730000000000004 164.11999999999995 22.410000000000004 C 173.7174754432425 21.716718550205716 183.2604756335411 20.407353455842035 192.69000000000003 18.489999999999988 L 194.60999999999993 18.07 C 194.9600635230554 18.59656200443872 195.46755216560973 18.999052996809404 196.05999999999992 19.22 C 197.58473013430466 19.744295728002957 199.24794221554274 18.947297816045985 199.7945620530814 17.430427766876203 C 200.34118189062005 15.913557717706421 199.5686831286938 14.238826168573123 198.05999999999992 13.669999999999998 Z" stroke-linecap="round" />
</g>
</g>
</g>
		<g transform="matrix(0.8025299087864285 -0.21503724096114601 0.21503724096114632 0.8025299087864299 62.130046636299824 -9.472816670963482)"  >
<g style=""  paint-order="stroke"   >
		<g transform="matrix(1 0 0 1 0 0)"  >
<path style="stroke: none; stroke-width: 1; stroke-dasharray: none; stroke-linecap: butt; stroke-dashoffset: 0; stroke-linejoin: miter; stroke-miterlimit: 4; fill: rgb(67,138,223); fill-rule: nonzero; opacity: 1;"  paint-order="stroke"  transform=" translate(-79.74636276871314, -100.08344222402854)" d="M 157 12.72 C 143.51 8.35 120.56 40.51 112 54.91 C 115 43.19 117.21 1.4299999999999997 105.64 0.5499999999999972 C 104.5741781585171 0.5052939668062799 103.54502665871027 0.9436029969632541 102.83872253641047 1.7430461244014896 C 102.13241841411067 2.5424892518397253 101.8242830838951 3.6178125677520674 102 4.670000000000001 C 102.45 7.67 104 12.030000000000001 105.92 17.1 C 114.76 36.43 112.46000000000001 54.95 105.57000000000001 73.35 C 107.4 65.14999999999999 107.57000000000001 9.899999999999991 91.99000000000001 12.189999999999998 C 89.83109971179606 12.533672342639788 88.30898362648783 14.493178107634286 88.51 16.669999999999995 C 88.9 21.519999999999996 91.99000000000001 29.49 95.45 38.4 C 112.65 73.92 98.73 95.97999999999999 81.45 126.94 C 88.3 119.94 98.71000000000001 45.64999999999999 82.18 52.53 C 79.81943593883953 53.56571457371117 78.12620841980792 55.704725443992245 77.66000000000001 58.24 C 76 67.16 78.66 76.77 80 85.53 C 86.5383955511734 109.20261933182715 80.21912105517853 134.57075128213546 63.340000000000025 152.40999999999997 C 67.34 141.32999999999998 73.39 61.849999999999994 52.42 55.47999999999999 C 51.02646613495416 55.05131453047972 49.51377998913124 55.276437663818285 48.30546971932212 56.092338489091325 C 47.097159449513 56.908239314364366 46.32309420813543 58.22722483476247 46.2 59.67999999999999 C 44.940000000000005 72.89999999999999 61.38 108.57 62.290000000000006 120.41 C 63.86000000000001 131.76 63.96000000000001 143.46 61.39000000000001 154.68 C 44.77 174.76 21.51 189.46 0 199.62 C 22.22 193.62 42.25 175.17000000000002 60.29 158.78 C 72.89 148.99 84.86 144.55 101.1 140.07 C 115.83999999999999 135.26 132.62 131.75 128.32 125.28 C 127.1654903633678 123.65003712321412 125.24202274555226 122.74331372941153 123.25 122.89 C 103.69 123.72 78.65 142.89 63.91 153.54 C 81.53 130.14 89.02 113.35 123.91 107.53999999999999 C 133.46 105.94 142.91 103.66 150.31 98.10999999999999 C 152.40443240341617 96.62865954221395 153.6142652342847 94.19396490121144 153.53 91.62999999999998 C 152.43 73.87999999999998 89.06 113.77999999999997 85.39 122.75999999999998 C 95.39 100.89999999999998 107.81 85.11999999999998 130.03 73.12999999999997 C 139.03 67.39999999999996 147.63 61.90999999999997 151.66 57.54999999999997 C 152.68132333169544 56.46104809445557 153.17982759380897 54.98247772884318 153.02633461048617 53.49743311519519 C 152.87284162716338 52.0123885015472 152.08245907503937 50.6670364113082 150.85999999999999 49.80999999999997 C 139.14999999999998 42.069999999999965 110.03999999999999 77.80999999999997 99.50999999999999 93.59999999999997 C 110.80999999999999 64.52999999999997 109.77 48.46999999999996 140.76 31.599999999999966 C 148.91 25.839999999999968 156.87 22.109999999999964 159.08999999999997 17.799999999999965 C 159.5762729939197 16.86029985171351 159.62453855340337 15.754260920505367 159.2219718364632 14.775773397990514 C 158.81940511952303 13.797285875475662 158.0067717826086 13.045435663454924 157 12.72 Z" stroke-linecap="round" />
</g>
</g>
</g>
		<g transform="matrix(-0.7958962393920948 -0.21325975460407953 -0.21325975460407964 0.7958962393920954 -62.838488823553234 -8.709018856481606)"  >
<g style=""  paint-order="stroke"   >
		<g transform="matrix(1 0 0 1 0 0)"  >
<path style="stroke: none; stroke-width: 1; stroke-dasharray: none; stroke-linecap: butt; stroke-dashoffset: 0; stroke-linejoin: miter; stroke-miterlimit: 4; fill: rgb(67,138,223); fill-rule: nonzero; opacity: 1;"  paint-order="stroke"  transform=" translate(-79.74636276871314, -100.08344222402854)" d="M 157 12.72 C 143.51 8.35 120.56 40.51 112 54.91 C 115 43.19 117.21 1.4299999999999997 105.64 0.5499999999999972 C 104.5741781585171 0.5052939668062799 103.54502665871027 0.9436029969632541 102.83872253641047 1.7430461244014896 C 102.13241841411067 2.5424892518397253 101.8242830838951 3.6178125677520674 102 4.670000000000001 C 102.45 7.67 104 12.030000000000001 105.92 17.1 C 114.76 36.43 112.46000000000001 54.95 105.57000000000001 73.35 C 107.4 65.14999999999999 107.57000000000001 9.899999999999991 91.99000000000001 12.189999999999998 C 89.83109971179606 12.533672342639788 88.30898362648783 14.493178107634286 88.51 16.669999999999995 C 88.9 21.519999999999996 91.99000000000001 29.49 95.45 38.4 C 112.65 73.92 98.73 95.97999999999999 81.45 126.94 C 88.3 119.94 98.71000000000001 45.64999999999999 82.18 52.53 C 79.81943593883953 53.56571457371117 78.12620841980792 55.704725443992245 77.66000000000001 58.24 C 76 67.16 78.66 76.77 80 85.53 C 86.5383955511734 109.20261933182715 80.21912105517853 134.57075128213546 63.340000000000025 152.40999999999997 C 67.34 141.32999999999998 73.39 61.849999999999994 52.42 55.47999999999999 C 51.02646613495416 55.05131453047972 49.51377998913124 55.276437663818285 48.30546971932212 56.092338489091325 C 47.097159449513 56.908239314364366 46.32309420813543 58.22722483476247 46.2 59.67999999999999 C 44.940000000000005 72.89999999999999 61.38 108.57 62.290000000000006 120.41 C 63.86000000000001 131.76 63.96000000000001 143.46 61.39000000000001 154.68 C 44.77 174.76 21.51 189.46 0 199.62 C 22.22 193.62 42.25 175.17000000000002 60.29 158.78 C 72.89 148.99 84.86 144.55 101.1 140.07 C 115.83999999999999 135.26 132.62 131.75 128.32 125.28 C 127.1654903633678 123.65003712321412 125.24202274555226 122.74331372941153 123.25 122.89 C 103.69 123.72 78.65 142.89 63.91 153.54 C 81.53 130.14 89.02 113.35 123.91 107.53999999999999 C 133.46 105.94 142.91 103.66 150.31 98.10999999999999 C 152.40443240341617 96.62865954221395 153.6142652342847 94.19396490121144 153.53 91.62999999999998 C 152.43 73.87999999999998 89.06 113.77999999999997 85.39 122.75999999999998 C 95.39 100.89999999999998 107.81 85.11999999999998 130.03 73.12999999999997 C 139.03 67.39999999999996 147.63 61.90999999999997 151.66 57.54999999999997 C 152.68132333169544 56.46104809445557 153.17982759380897 54.98247772884318 153.02633461048617 53.49743311519519 C 152.87284162716338 52.0123885015472 152.08245907503937 50.6670364113082 150.85999999999999 49.80999999999997 C 139.14999999999998 42.069999999999965 110.03999999999999 77.80999999999997 99.50999999999999 93.59999999999997 C 110.80999999999999 64.52999999999997 109.77 48.46999999999996 140.76 31.599999999999966 C 148.91 25.839999999999968 156.87 22.109999999999964 159.08999999999997 17.799999999999965 C 159.5762729939197 16.86029985171351 159.62453855340337 15.754260920505367 159.2219718364632 14.775773397990514 C 158.81940511952303 13.797285875475662 158.0067717826086 13.045435663454924 157 12.72 Z" stroke-linecap="round" />
</g>
</g>
</g>
</g>
</g>
<g transform="matrix(1.9211538461538462 0 0 1.9211538461538462 641.0086057692308 707.2990920296907)" id="text-logo"  >
<g style=""  paint-order="stroke"   >
		<g transform="matrix(1 0 0 1 0 0)" id="text-logo-path-0"  >
<path style="stroke: none; stroke-width: 0; stroke-dasharray: none; stroke-linecap: butt; stroke-dashoffset: 0; stroke-linejoin: miter; stroke-miterlimit: 4; fill: rgb(67,138,223); fill-rule: nonzero; opacity: 1;"  paint-order="stroke"  transform=" translate(-116.975, 17.5)" d="M 2 -1 L 2 0 L 20 0 C 29.1 0 33.3 -4.1 33.3 -10.25 C 33.3 -15.05 30.2 -18.6 25.4 -19.9 C 24.85 -20.05 24.8 -20.3 25.4 -20.5 C 28.3 -21.85 30.05 -24.4 30.05 -27.25 C 30.05 -31.55 26.6 -35 19 -35 L 2 -35 L 2 -34 C 3.5 -34 4.5 -33.6 4.5 -32 L 4.5 -3 C 4.5 -1.4 3.5 -1 2 -1 Z M 15.75 -20.5 L 12.5 -20.5 C 11.9 -20.5 11.5 -20.9 11.5 -21.5 L 11.5 -33 C 11.5 -33.6 11.9 -34 12.5 -34 L 15.5 -34 C 20.7 -34 23.05 -31 23.05 -27.25 C 23.05 -23.5 20.25 -20.5 15.75 -20.5 Z M 11.5 -2 L 11.5 -18.5 C 11.5 -19.1 11.9 -19.5 12.5 -19.5 L 16.5 -19.5 C 22.3 -19.5 26.3 -15.9 26.3 -10.25 C 26.3 -4.6 23.2 -1 16.5 -1 L 12.5 -1 C 11.9 -1 11.5 -1.4 11.5 -2 Z M 40.45 0 L 52.45 0 L 52.45 -1 C 50.95 -1 49.95 -1.4 49.95 -3 L 49.95 -32 C 49.95 -33.6 50.95 -34 52.45 -34 L 52.45 -35 L 40.45 -35 L 40.45 -34 C 41.95 -34 42.95 -33.6 42.95 -32 L 42.95 -3 C 42.95 -1.4 41.95 -1 40.45 -1 Z M 77.95 0.3 C 87.7 0.3 96.25 -6.6 96.25 -17.5 C 96.25 -28.4 87.7 -35.3 77.95 -35.3 C 68.2 -35.3 59.6 -28.4 59.6 -17.5 C 59.6 -6.6 68.2 0.3 77.95 0.3 Z M 79.4 -1.2 C 72.75 -1.2 67.7 -7.45 66.8 -17.5 C 65.9 -27.55 69.85 -33.8 76.5 -33.8 C 83.15 -33.8 88.15 -27.55 89.05 -17.5 C 89.95 -7.45 86.05 -1.2 79.4 -1.2 Z M 121.55 -1 L 121.55 0 L 145.3 0 L 145.45 -0.75 L 146.15 -5.2 L 145.2 -5.35 C 144.8 -3.15 144.15 -1.5 142.55 -1.5 L 132.05 -1.5 C 131.45 -1.5 131.05 -1.9 131.05 -2.5 L 131.05 -32 C 131.05 -33.6 132.05 -34 133.55 -34 L 133.55 -35 L 121.55 -35 L 121.55 -34 C 123.05 -34 124.05 -33.6 124.05 -32 L 124.05 -3 C 124.05 -1.4 123.05 -1 121.55 -1 Z M 175.3 -1 L 175.3 0 L 187.05 0 L 187.05 -1 C 186.15 -1 185 -1.3 184.35 -2.75 L 170.65 -35 L 167.45 -35 L 167.45 -33.5 C 167.45 -32.9 167.3 -32.15 167.1 -31.55 L 155.65 -2.8 C 155.05 -1.3 153.65 -1 152.3 -1 L 152.3 0 L 159.3 0 L 159.3 -1 C 157.35 -1 156.55 -1.3 157.15 -2.8 L 160.45 -11.05 C 160.65 -11.65 161.2 -12 161.8 -12 L 172.5 -12 C 173.1 -12 173.65 -11.65 173.9 -11.1 L 177.4 -2.75 C 178 -1.3 177.25 -1 175.3 -1 Z M 161.75 -14.45 L 166.6 -26.45 C 166.8 -27.05 167.1 -27.05 167.35 -26.5 L 172.45 -14.4 C 172.7 -13.85 172.45 -13.5 171.85 -13.5 L 162.4 -13.5 C 161.8 -13.5 161.55 -13.85 161.75 -14.45 Z M 186.6 -32.15 L 196.95 0 L 201.95 0 L 207.4 -16.9 C 207.6 -17.45 207.8 -17.45 208 -16.9 L 213.45 0 L 218.45 0 L 228.8 -32.15 C 229.25 -33.65 230.6 -34 231.95 -34 L 231.95 -35 L 224.95 -35 L 224.95 -34 C 226.9 -34 227.75 -33.65 227.3 -32.15 L 219 -6.4 C 218.8 -5.85 218.6 -5.85 218.4 -6.4 L 210.1 -32.15 C 209.65 -33.65 210.5 -34 212.45 -34 L 212.45 -35 L 200.7 -35 L 200.7 -34 C 201.6 -34 202.65 -33.65 203.1 -32.15 L 206.5 -21.6 L 206.95 -20.2 L 202.5 -6.4 C 202.3 -5.85 202.1 -5.85 201.9 -6.4 L 193.6 -32.15 C 193.15 -33.65 194 -34 195.95 -34 L 195.95 -35 L 184.2 -35 L 184.2 -34 C 185.1 -34 186.15 -33.65 186.6 -32.15 Z" stroke-linecap="round" />
</g>
</g>
</g>
<g transform="matrix(1.9211538461538462 0 0 1.9211538461538462 639.9039423076924 790.4303006835369)" id="tagline-1c69307f-ab8e-4453-be83-6393debed8af-logo"  >
<g style=""  paint-order="stroke"   >
		<g transform="matrix(1 0 0 1 0 0)" id="tagline-1c69307f-ab8e-4453-be83-6393debed8af-logo-path-0"  >
<path style="stroke: none; stroke-width: 0; stroke-dasharray: none; stroke-linecap: butt; stroke-dashoffset: 0; stroke-linejoin: miter; stroke-miterlimit: 4; fill: rgb(67,138,223); fill-rule: nonzero; opacity: 1;"  paint-order="stroke"  transform=" translate(-80.7, 8.75)" d="M 6.18 -0.5 C 3.9 -0.45 1.78 -1.5 0.5 -3.13 L 2.6 0 L 7.25 0 C 10.83 0 12.8 -1.9 12.8 -4.42 C 12.8 -6.23 11.58 -7.3 9.55 -8.43 L 5.25 -10.8 C 4.05 -11.43 2.73 -12.4 2.73 -14 C 2.73 -15.85 4.33 -17 6.78 -17 C 9.05 -17 10.83 -16 12.1 -14.38 L 10 -17.5 L 6.33 -17.5 C 3.05 -17.5 1.1 -15.9 1.1 -13.75 C 1.1 -12.13 1.83 -11.2 3.85 -9.98 L 8.33 -7.5 C 10.13 -6.5 11.18 -5.58 11.18 -3.93 C 11.18 -1.53 9.18 -0.55 6.18 -0.5 Z M 26.4 0.13 C 30.8 0.13 34.28 -3.58 34.28 -8.75 C 34.28 -14.05 31.3 -17.63 26.4 -17.63 C 22 -17.63 18.55 -13.93 18.55 -8.75 C 18.55 -3.45 21.53 0.13 26.4 0.13 Z M 26.4 -0.38 C 22.93 -0.38 20.18 -3.88 20.18 -8.75 C 20.18 -13.95 22.38 -17.13 26.4 -17.13 C 29.9 -17.13 32.65 -13.65 32.65 -8.75 C 32.65 -3.58 30.4 -0.38 26.4 -0.38 Z M 41.05 -15.58 L 41.05 -1.93 C 41.05 -1.1 40.33 -0.25 39.28 0 L 49.58 0 L 49.75 -0.38 L 51.03 -2.88 C 49.98 -1.65 48.18 -0.5 46.95 -0.5 L 44.33 -0.5 C 43.28 -0.5 42.55 -1.1 42.55 -1.93 L 42.55 -15.58 C 42.55 -16.4 43.28 -17.25 44.33 -17.5 L 39.28 -17.5 C 40.33 -17.25 41.05 -16.4 41.05 -15.58 Z M 64.45 0.13 C 67.83 0.13 70.3 -2.23 70.3 -5.78 L 70.3 -15.58 C 70.3 -16.4 71.03 -17.25 72.08 -17.5 L 68.03 -17.5 C 69.08 -17.25 69.8 -16.4 69.8 -15.58 L 69.8 -5.78 C 69.8 -2.83 67.75 -0.88 64.95 -0.88 C 61.98 -0.88 60.05 -2.93 60.05 -5.78 L 60.05 -15.58 C 60.05 -16.4 60.78 -17.25 61.83 -17.5 L 56.78 -17.5 C 57.83 -17.25 58.55 -16.4 58.55 -15.58 L 58.55 -5.78 C 58.55 -2.35 60.88 0.13 64.45 0.13 Z M 82.28 0 L 87.33 0 C 86.28 -0.25 85.55 -1.1 85.55 -1.93 L 85.55 -15.58 C 85.55 -16.4 86.28 -17 87.33 -17 L 87.7 -17 C 88.93 -17 90.73 -15.85 91.78 -14.63 L 90.5 -17.13 L 90.33 -17.5 L 79.28 -17.5 L 79.1 -17.13 L 77.83 -14.63 C 78.88 -15.85 80.67 -17 81.92 -17 L 82.28 -17 C 83.33 -17 84.05 -16.4 84.05 -15.58 L 84.05 -1.93 C 84.05 -1.1 83.33 -0.25 82.28 0 Z M 98.8 -15.58 L 98.8 -1.93 C 98.8 -1.1 98.08 -0.25 97.03 0 L 102.08 0 C 101.03 -0.25 100.3 -1.1 100.3 -1.93 L 100.3 -15.58 C 100.3 -16.4 101.03 -17.25 102.08 -17.5 L 97.03 -17.5 C 98.08 -17.25 98.8 -16.4 98.8 -15.58 Z M 114.92 0.13 C 119.33 0.13 122.8 -3.58 122.8 -8.75 C 122.8 -14.05 119.83 -17.63 114.92 -17.63 C 110.53 -17.63 107.08 -13.93 107.08 -8.75 C 107.08 -3.45 110.05 0.13 114.92 0.13 Z M 114.92 -0.38 C 111.45 -0.38 108.7 -3.88 108.7 -8.75 C 108.7 -13.95 110.9 -17.13 114.92 -17.13 C 118.43 -17.13 121.18 -13.65 121.18 -8.75 C 121.18 -3.58 118.93 -0.38 114.92 -0.38 Z M 129.58 -15.58 L 129.58 -1.93 C 129.58 -1.1 128.85 -0.25 127.8 0 L 131.85 0 C 130.8 -0.25 130.08 -1.1 130.08 -1.93 L 130.08 -15.65 L 140.58 0 L 141.08 0 L 141.08 -15.58 C 141.08 -16.4 141.8 -17.25 142.85 -17.5 L 138.8 -17.5 C 139.85 -17.25 140.58 -16.4 140.58 -15.58 L 140.58 -2.63 L 130.58 -17.5 L 127.8 -17.5 C 128.85 -17.25 129.58 -16.4 129.58 -15.58 Z M 154.28 -0.5 C 152 -0.45 149.88 -1.5 148.6 -3.13 L 150.7 0 L 155.35 0 C 158.93 0 160.9 -1.9 160.9 -4.42 C 160.9 -6.23 159.68 -7.3 157.65 -8.43 L 153.35 -10.8 C 152.15 -11.43 150.83 -12.4 150.83 -14 C 150.83 -15.85 152.43 -17 154.88 -17 C 157.15 -17 158.93 -16 160.2 -14.38 L 158.1 -17.5 L 154.43 -17.5 C 151.15 -17.5 149.2 -15.9 149.2 -13.75 C 149.2 -12.13 149.93 -11.2 151.95 -9.98 L 156.43 -7.5 C 158.23 -6.5 159.28 -5.58 159.28 -3.93 C 159.28 -1.53 157.28 -0.55 154.28 -0.5 Z" stroke-linecap="round" />
</g>
</g>
</g>
<g transform="matrix(1.9211538461538462 0 0 1.9211538461538462 640.0720432692308 456.0735307420707)" id="tagline-94cd1386-a164-4f4d-93a1-4c42bcbdb1d1-logo"  >
<g style=""  paint-order="stroke"   >
		<g transform="matrix(1 0 0 1 0 0)" id="tagline-94cd1386-a164-4f4d-93a1-4c42bcbdb1d1-logo-path-0"  >
<path style="stroke: none; stroke-width: 0; stroke-dasharray: none; stroke-linecap: butt; stroke-dashoffset: 0; stroke-linejoin: miter; stroke-miterlimit: 4; fill: rgb(67,138,223); fill-rule: nonzero; opacity: 1;"  paint-order="stroke"  transform=" translate(-26.475, 26.25)" d="M 3 -1.5 L 3 0 L 30 0 C 43.65 0 49.95 -6.15 49.95 -15.38 C 49.95 -22.57 45.3 -27.9 38.1 -29.85 C 37.27 -30.07 37.2 -30.45 38.1 -30.75 C 42.45 -32.77 45.07 -36.6 45.07 -40.88 C 45.07 -47.32 39.9 -52.5 28.5 -52.5 L 3 -52.5 L 3 -51 C 5.25 -51 6.75 -50.4 6.75 -48 L 6.75 -4.5 C 6.75 -2.1 5.25 -1.5 3 -1.5 Z M 23.63 -30.75 L 18.75 -30.75 C 17.85 -30.75 17.25 -31.35 17.25 -32.25 L 17.25 -49.5 C 17.25 -50.4 17.85 -51 18.75 -51 L 23.25 -51 C 31.05 -51 34.57 -46.5 34.57 -40.88 C 34.57 -35.25 30.38 -30.75 23.63 -30.75 Z M 17.25 -3 L 17.25 -27.75 C 17.25 -28.65 17.85 -29.25 18.75 -29.25 L 24.75 -29.25 C 33.45 -29.25 39.45 -23.85 39.45 -15.38 C 39.45 -6.9 34.8 -1.5 24.75 -1.5 L 18.75 -1.5 C 17.85 -1.5 17.25 -2.1 17.25 -3 Z" stroke-linecap="round" />
</g>
</g>
</g>
</svg>